<svg width="660" height="120" viewBox="0 0 660 120" fill="none" xmlns="http://www.w3.org/2000/svg">
  <g fill="#050505">
    <path d="M9.5 97V22.8H36.8C50.4 22.8 60.2 31.1 60.2 43.6C60.2 51.5 56.2 57.7 49.7 61.2L63.8 97H46L34.7 66.5H26.6V97H9.5ZM26.6 52.9H35.3C41.8 52.9 45.6 49.2 45.6 43.8C45.6 38.2 41.8 34.6 35.3 34.6H26.6V52.9Z"/>
    <path d="M72.2 97V22.8H121.2V35.1H89.3V52.3H118.4V64.5H89.3V84.7H122V97H72.2Z"/>
    <path d="M147.7 97L121.9 22.8H140.2L156.8 76.5L173.5 22.8H191.2L165.5 97H147.7Z"/>
    <path d="M196.1 97V22.8H213.2V52.2H239.8V22.8H256.9V97H239.8V64.9H213.2V97H196.1Z"/>
    <path d="M264.8 97V22.8H281.9V84.2H313.2V97H264.8Z"/>
    <path d="M314.8 59.7C314.8 38 330.7 21.4 352.7 21.4C374.8 21.4 390.7 38 390.7 59.7C390.7 81.4 374.8 98.3 352.7 98.3C330.7 98.3 314.8 81.4 314.8 59.7ZM332.1 59.7C332.1 72.7 341 84 352.7 84C364.5 84 373.4 72.7 373.4 59.7C373.4 46.8 364.5 35.8 352.7 35.8C341 35.8 332.1 46.8 332.1 59.7Z"/>
  </g>
  <path d="M431 22.8H448.1V97H431V22.8Z" fill="#58D0C8"/>
  <path d="M447.2 22.8H463.2V45.5C463.2 49.1 466.1 52 469.7 52H476.9C480.5 52 483.4 49.1 483.4 45.5V22.8H499.4V46C499.4 57.8 489.8 67.4 478 67.4H468.6C456.8 67.4 447.2 57.8 447.2 46V22.8Z" fill="#58D0C8"/>
  <path d="M535.5 24.8C530.4 24.8 526 27.8 524 32.2C522 27.7 517.5 24.7 512.3 24.7C505.3 24.7 499.6 30.4 499.6 37.3C499.6 48.5 513.2 56.7 524.1 66.4C535.2 57 548.4 48.4 548.4 37.3C548.4 30.4 542.6 24.8 535.5 24.8Z" fill="#FF7A00"/>
  <path d="M525.1 36.9C521.1 36.9 517.8 39.6 516.9 43.3C516.2 46.2 516.9 49.6 519.4 52.6C522.2 55.9 526.9 58 532.8 57.3C536.7 56.8 540 54.7 541.9 51.9C544 48.7 544.5 44.9 543.2 41.4C541.6 37 537.8 34.1 533.5 33.8C530.8 33.6 527.8 34.4 525.1 36.9Z" fill="#FFD34D"/>
  <path d="M574.6 22.8H591.6V53.3L613.4 22.8H633.8L606.1 60L635.1 97H614L591.6 67.7V97H574.6V22.8Z" fill="#1FC6BA"/>
</svg>
